<?xml version="1.0" standalone="no"?>
 <!DOCTYPE svg PUBLIC "-//W3C//DTD SVG 1.1//EN" 
 "http://www.w3.org/Graphics/SVG/1.1/DTD/svg11.dtd"> 
<svg xmlns="http://www.w3.org/2000/svg" version="1.1" 
    width="29.7002cm" height="21.0007cm" viewBox="0 0 116930 82680 ">
<title>SVG Picture created as power-Power Module.svg date 2015/06/24 19:03:09 </title>
  <desc>Picture generated by Eeschema-SVG </desc>
<g style="fill:#000000; fill-opacity:1;stroke:#000000; stroke-opacity:1;
stroke-linecap:round; stroke-linejoin:round; "
 transform="translate(0 0) scale(1 1)">
</g>
<g style="fill:#A00000; fill-opacity:0.0; 
stroke:#A00000; stroke-width:100; stroke-opacity:1; 
stroke-linecap:round; stroke-linejoin:round;">
<path d="M4000 4000
L112930 4000
L112930 78680
L4000 78680
L4000 4000
" />
<path d="M4700 4700
L112230 4700
L112230 77980
L4700 77980
L4700 4700
" />
<path d="M25780 4000
L25780 4700
" />
<path d="M15030 4550
L14750 4550
" />
<path d="M14890 4550
L14890 4050
L14840 4120
L14790 4170
L14750 4200
" />
<path d="M25780 78680
L25780 77980
" />
<path d="M15030 78530
L14750 78530
" />
<path d="M14890 78530
L14890 78030
L14840 78100
L14790 78150
L14750 78180
" />
<path d="M47560 4000
L47560 4700
" />
<path d="M36530 4100
L36550 4080
L36600 4050
L36720 4050
L36760 4080
L36790 4100
L36810 4150
L36810 4200
L36790 4270
L36500 4550
L36810 4550
" />
<path d="M47560 78680
L47560 77980
" />
<path d="M36530 78080
L36550 78060
L36600 78030
L36720 78030
L36760 78060
L36790 78080
L36810 78130
L36810 78180
L36790 78250
L36500 78530
L36810 78530
" />
<path d="M69340 4000
L69340 4700
" />
<path d="M58280 4050
L58590 4050
L58420 4240
L58500 4240
L58540 4270
L58570 4290
L58590 4340
L58590 4460
L58570 4500
L58540 4530
L58500 4550
L58350 4550
L58310 4530
L58280 4500
" />
<path d="M69340 78680
L69340 77980
" />
<path d="M58280 78030
L58590 78030
L58420 78220
L58500 78220
L58540 78250
L58570 78270
L58590 78320
L58590 78440
L58570 78480
L58540 78510
L58500 78530
L58350 78530
L58310 78510
L58280 78480
" />
<path d="M91120 4000
L91120 4700
" />
<path d="M80320 4220
L80320 4550
" />
<path d="M80200 4030
L80090 4390
L80390 4390
" />
<path d="M91120 78680
L91120 77980
" />
<path d="M80320 78200
L80320 78530
" />
<path d="M80200 78010
L80090 78370
L80390 78370
" />
<path d="M102130 4050
L101890 4050
L101870 4290
L101890 4270
L101940 4240
L102060 4240
L102100 4270
L102130 4290
L102150 4340
L102150 4460
L102130 4500
L102100 4530
L102060 4550
L101940 4550
L101890 4530
L101870 4500
" />
<path d="M102130 78030
L101890 78030
L101870 78270
L101890 78250
L101940 78220
L102060 78220
L102100 78250
L102130 78270
L102150 78320
L102150 78440
L102130 78480
L102100 78510
L102060 78530
L101940 78530
L101890 78510
L101870 78480
" />
<path d="M4000 28890
L4700 28890
" />
<path d="M4240 16510
L4470 16510
" />
<path d="M4190 16650
L4350 16150
L4520 16650
" />
<path d="M112930 28890
L112230 28890
" />
<path d="M112470 16510
L112700 16510
" />
<path d="M112420 16650
L112580 16150
L112750 16650
" />
<path d="M4000 53780
L4700 53780
" />
<path d="M4390 41280
L4460 41300
L4480 41330
L4500 41380
L4500 41450
L4480 41490
L4460 41520
L4410 41540
L4220 41540
L4220 41040
L4390 41040
L4430 41070
L4460 41090
L4480 41140
L4480 41190
L4460 41230
L4430 41260
L4390 41280
L4220 41280
" />
<path d="M112930 53780
L112230 53780
" />
<path d="M112620 41280
L112690 41300
L112710 41330
L112730 41380
L112730 41450
L112710 41490
L112690 41520
L112640 41540
L112450 41540
L112450 41040
L112620 41040
L112660 41070
L112690 41090
L112710 41140
L112710 41190
L112690 41230
L112660 41260
L112620 41280
L112450 41280
" />
<path d="M4500 66380
L4480 66410
L4410 66430
L4360 66430
L4290 66410
L4240 66360
L4220 66310
L4200 66220
L4200 66150
L4220 66050
L4240 66000
L4290 65960
L4360 65930
L4410 65930
L4480 65960
L4500 65980
" />
<path d="M112730 66380
L112710 66410
L112640 66430
L112590 66430
L112520 66410
L112470 66360
L112450 66310
L112430 66220
L112430 66150
L112450 66050
L112470 66000
L112520 65960
L112590 65930
L112640 65930
L112710 65960
L112730 65980
" />
<path d="M79380 76420
L79450 75820
L79600 75820
L79680 75850
L79730 75910
L79750 75970
L79770 76080
L79760 76170
L79720 76280
L79680 76340
L79610 76390
L79530 76420
L79380 76420
" />
<path d="M80240 76420
L80280 76110
L80250 76050
L80200 76020
L80090 76020
L80020 76050
" />
<path d="M80240 76390
L80180 76420
L80040 76420
L79980 76390
L79960 76340
L79970 76280
L80000 76220
L80070 76190
L80210 76190
L80270 76170
" />
<path d="M80490 76020
L80720 76020
" />
<path d="M80590 75820
L80530 76340
L80550 76390
L80610 76420
L80670 76420
" />
<path d="M81090 76390
L81030 76420
L80920 76420
L80860 76390
L80840 76340
L80870 76110
L80900 76050
L80970 76020
L81080 76020
L81130 76050
L81160 76110
L81150 76170
L80850 76220
" />
<path d="M81370 76370
L81400 76390
L81370 76420
L81340 76390
L81370 76370
L81370 76420
" />
<path d="M81410 76050
L81440 76080
L81410 76110
L81380 76080
L81410 76050
L81410 76110
" />
<path d="M82160 75880
L82190 75850
L82250 75820
L82390 75820
L82450 75850
L82480 75880
L82500 75940
L82490 75990
L82450 76080
L82070 76420
L82440 76420
" />
<path d="M83000 76020
L82950 76420
" />
<path d="M82890 75790
L82680 76220
L83060 76220
" />
<path d="M83770 76020
L83700 76540
L83670 76590
L83610 76620
L83580 76620
" />
<path d="M83790 75820
L83760 75850
L83790 75880
L83820 75850
L83790 75820
L83790 75880
" />
<path d="M84320 76020
L84270 76420
" />
<path d="M84060 76020
L84020 76340
L84040 76390
L84100 76420
L84180 76420
L84240 76390
L84270 76370
" />
<path d="M84600 76020
L84550 76420
" />
<path d="M84590 76080
L84620 76050
L84690 76020
L84770 76020
L84820 76050
L84850 76110
L84810 76420
" />
<path d="M85590 75880
L85620 75850
L85680 75820
L85820 75820
L85880 75850
L85910 75880
L85930 75940
L85920 75990
L85880 76080
L85500 76420
L85870 76420
" />
<path d="M86310 75820
L86360 75820
L86420 75850
L86450 75880
L86470 75940
L86480 76050
L86470 76190
L86420 76310
L86380 76370
L86350 76390
L86290 76420
L86240 76420
L86180 76390
L86150 76370
L86130 76310
L86120 76190
L86130 76050
L86180 75940
L86220 75880
L86250 75850
L86310 75820
" />
<path d="M87010 76420
L86660 76420
" />
<path d="M86840 76420
L86910 75820
L86840 75910
L86770 75970
L86710 75990
" />
<path d="M87620 75820
L87330 75820
L87270 76110
L87300 76080
L87360 76050
L87500 76050
L87560 76080
L87590 76110
L87610 76170
L87590 76310
L87550 76370
L87520 76390
L87460 76420
L87320 76420
L87260 76390
L87230 76370
" />
<path d="M70970 77620
L70970 77020
" />
<path d="M71320 77620
L71060 77280
" />
<path d="M71320 77020
L70970 77370
" />
<path d="M71570 77620
L71570 77220
" />
<path d="M71570 77020
L71540 77050
L71570 77080
L71600 77050
L71570 77020
L71570 77080
" />
<path d="M72210 77570
L72180 77590
L72090 77620
L72030 77620
L71950 77590
L71890 77540
L71860 77480
L71830 77370
L71830 77280
L71860 77170
L71890 77110
L71950 77050
L72030 77020
L72090 77020
L72180 77050
L72210 77080
" />
<path d="M72720 77620
L72720 77310
L72690 77250
L72630 77220
L72520 77220
L72460 77250
" />
<path d="M72720 77590
L72660 77620
L72520 77620
L72460 77590
L72430 77540
L72430 77480
L72460 77420
L72520 77390
L72660 77390
L72720 77370
" />
<path d="M73260 77620
L73260 77020
" />
<path d="M73260 77590
L73200 77620
L73090 77620
L73030 77590
L73000 77570
L72970 77510
L72970 77340
L73000 77280
L73030 77250
L73090 77220
L73200 77220
L73260 77250
" />
<path d="M74000 77310
L74200 77310
" />
<path d="M74290 77620
L74000 77620
L74000 77020
L74290 77020
" />
<path d="M74540 77570
L74570 77590
L74540 77620
L74510 77590
L74540 77570
L74540 77620
" />
<path d="M74830 77620
L74830 77020
L74980 77020
L75060 77050
L75120 77110
L75150 77170
L75180 77280
L75180 77370
L75150 77480
L75120 77540
L75060 77590
L74980 77620
L74830 77620
" />
<path d="M75430 77570
L75460 77590
L75430 77620
L75400 77590
L75430 77570
L75430 77620
" />
<path d="M75690 77450
L75980 77450
" />
<path d="M75640 77620
L75840 77020
L76040 77620
" />
<path d="M76230 77570
L76260 77590
L76230 77620
L76200 77590
L76230 77570
L76230 77620
" />
<path d="M104530 76420
L104360 76140
" />
<path d="M104180 76420
L104250 75820
L104480 75820
L104540 75850
L104570 75880
L104590 75940
L104580 76020
L104540 76080
L104510 76110
L104440 76140
L104210 76140
" />
<path d="M105010 76390
L104950 76420
L104840 76420
L104780 76390
L104760 76340
L104790 76110
L104820 76050
L104890 76020
L105000 76020
L105050 76050
L105080 76110
L105070 76170
L104770 76220
" />
<path d="M105290 76020
L105380 76420
L105570 76020
" />
<path d="M105750 76370
L105780 76390
L105750 76420
L105720 76390
L105750 76370
L105750 76420
" />
<path d="M105790 76050
L105820 76080
L105790 76110
L105760 76080
L105790 76050
L105790 76110
" />
<path d="M70940 76390
L71030 76420
L71170 76420
L71230 76390
L71260 76370
L71290 76310
L71290 76250
L71260 76190
L71230 76170
L71170 76140
L71060 76110
L71000 76080
L70970 76050
L70940 75990
L70940 75940
L70970 75880
L71000 75850
L71060 75820
L71200 75820
L71290 75850
" />
<path d="M71540 76420
L71540 76020
" />
<path d="M71540 75820
L71510 75850
L71540 75880
L71570 75850
L71540 75820
L71540 75880
" />
<path d="M71780 76020
L72090 76020
L71780 76420
L72090 76420
" />
<path d="M72550 76390
L72490 76420
L72380 76420
L72320 76390
L72290 76340
L72290 76110
L72320 76050
L72380 76020
L72490 76020
L72550 76050
L72580 76110
L72580 76170
L72290 76220
" />
<path d="M72830 76370
L72860 76390
L72830 76420
L72800 76390
L72830 76370
L72830 76420
" />
<path d="M72830 76050
L72860 76080
L72830 76110
L72800 76080
L72830 76050
L72830 76110
" />
<path d="M73550 76250
L73840 76250
" />
<path d="M73500 76420
L73700 75820
L73900 76420
" />
<path d="M74350 76020
L74350 76420
" />
<path d="M74210 75790
L74060 76220
L74440 76220
" />
<path d="M104170 77620
L104170 77020
" />
<path d="M104720 77620
L104720 77020
" />
<path d="M104720 77590
L104660 77620
L104550 77620
L104490 77590
L104460 77570
L104430 77510
L104430 77340
L104460 77280
L104490 77250
L104550 77220
L104660 77220
L104720 77250
" />
<path d="M105000 77570
L105030 77590
L105000 77620
L104970 77590
L105000 77570
L105000 77620
" />
<path d="M105000 77250
L105030 77280
L105000 77310
L104970 77280
L105000 77250
L105000 77310
" />
<path d="M106040 77020
L105750 77020
L105720 77310
L105750 77280
L105810 77250
L105950 77250
L106010 77280
L106040 77310
L106070 77370
L106070 77510
L106040 77570
L106010 77590
L105950 77620
L105810 77620
L105750 77590
L105720 77570
" />
<path d="M106750 76990
L106240 77770
" />
<path d="M107240 77020
L106950 77020
L106920 77310
L106950 77280
L107010 77250
L107150 77250
L107210 77280
L107240 77310
L107270 77370
L107270 77510
L107240 77570
L107210 77590
L107150 77620
L107010 77620
L106950 77590
L106920 77570
" />
<path d="M70970 74620
L71310 74620
" />
<path d="M71070 75220
L71140 74620
" />
<path d="M71440 75220
L71490 74820
" />
<path d="M71510 74620
L71480 74650
L71510 74680
L71540 74650
L71510 74620
L71510 74680
" />
<path d="M71700 74820
L71930 74820
" />
<path d="M71800 74620
L71740 75140
L71760 75190
L71820 75220
L71880 75220
" />
<path d="M72160 75220
L72100 75190
L72080 75140
L72140 74620
" />
<path d="M72610 75190
L72550 75220
L72440 75220
L72380 75190
L72360 75140
L72390 74910
L72420 74850
L72490 74820
L72600 74820
L72650 74850
L72680 74910
L72670 74970
L72370 75020
" />
<path d="M72890 75170
L72920 75190
L72890 75220
L72860 75190
L72890 75170
L72890 75220
" />
<path d="M72930 74850
L72960 74880
L72930 74910
L72900 74880
L72930 74850
L72930 74910
" />
<path d="M71170 72510
L70970 72510
" />
<path d="M70970 72820
L70970 72220
L71260 72220
" />
<path d="M71480 72820
L71480 72420
" />
<path d="M71480 72220
L71450 72250
L71480 72280
L71510 72250
L71480 72220
L71480 72280
" />
<path d="M71860 72820
L71800 72790
L71770 72740
L71770 72220
" />
<path d="M72310 72790
L72250 72820
L72140 72820
L72080 72790
L72050 72740
L72050 72510
L72080 72450
L72140 72420
L72250 72420
L72310 72450
L72340 72510
L72340 72570
L72050 72620
" />
<path d="M72590 72770
L72620 72790
L72590 72820
L72560 72790
L72590 72770
L72590 72820
" />
<path d="M72590 72450
L72620 72480
L72590 72510
L72560 72480
L72590 72450
L72590 72510
" />
<path d="M73340 72420
L73340 73020
" />
<path d="M73340 72450
L73400 72420
L73510 72420
L73570 72450
L73600 72480
L73630 72540
L73630 72710
L73600 72770
L73570 72790
L73510 72820
L73400 72820
L73340 72790
" />
<path d="M73970 72820
L73910 72790
L73880 72770
L73850 72710
L73850 72540
L73880 72480
L73910 72450
L73970 72420
L74050 72420
L74110 72450
L74140 72480
L74170 72540
L74170 72710
L74140 72770
L74110 72790
L74050 72820
L73970 72820
" />
<path d="M74370 72420
L74480 72820
L74590 72540
L74710 72820
L74820 72420
" />
<path d="M75280 72790
L75220 72820
L75110 72820
L75050 72790
L75020 72740
L75020 72510
L75050 72450
L75110 72420
L75220 72420
L75280 72450
L75310 72510
L75310 72570
L75020 72620
" />
<path d="M75560 72820
L75560 72420
" />
<path d="M75560 72540
L75590 72480
L75620 72450
L75680 72420
L75730 72420
" />
<path d="M75930 72770
L75960 72790
L75930 72820
L75900 72790
L75930 72770
L75930 72820
" />
<path d="M76190 72790
L76250 72820
L76370 72820
L76420 72790
L76450 72740
L76450 72710
L76420 72650
L76370 72620
L76280 72620
L76220 72590
L76190 72540
L76190 72510
L76220 72450
L76280 72420
L76370 72420
L76420 72450
" />
<path d="M76970 72790
L76910 72820
L76800 72820
L76740 72790
L76710 72770
L76680 72710
L76680 72540
L76710 72480
L76740 72450
L76800 72420
L76910 72420
L76970 72450
" />
<path d="M77220 72820
L77220 72220
" />
<path d="M77480 72820
L77480 72510
L77450 72450
L77390 72420
L77310 72420
L77250 72450
L77220 72480
" />
<path d="M70940 73990
L71030 74020
L71170 74020
L71230 73990
L71260 73970
L71290 73910
L71290 73850
L71260 73790
L71230 73770
L71170 73740
L71060 73710
L71000 73680
L70970 73650
L70940 73590
L70940 73540
L70970 73480
L71000 73450
L71060 73420
L71200 73420
L71290 73450
" />
<path d="M71540 74020
L71540 73420
" />
<path d="M71800 74020
L71800 73710
L71770 73650
L71710 73620
L71630 73620
L71570 73650
L71540 73680
" />
<path d="M72310 73990
L72250 74020
L72140 74020
L72080 73990
L72050 73940
L72050 73710
L72080 73650
L72140 73620
L72250 73620
L72310 73650
L72340 73710
L72340 73770
L72050 73820
" />
<path d="M72820 73990
L72760 74020
L72650 74020
L72590 73990
L72560 73940
L72560 73710
L72590 73650
L72650 73620
L72760 73620
L72820 73650
L72850 73710
L72850 73770
L72560 73820
" />
<path d="M73020 73620
L73250 73620
" />
<path d="M73100 73420
L73100 73940
L73130 73990
L73190 74020
L73250 74020
" />
<path d="M73440 73970
L73470 73990
L73440 74020
L73410 73990
L73440 73970
L73440 74020
" />
<path d="M73440 73650
L73470 73680
L73440 73710
L73410 73680
L73440 73650
L73440 73710
" />
<path d="M74620 73390
L74110 74170
" />
<path d="M74820 74020
L74820 73420
L75050 73420
L75110 73450
L75140 73480
L75170 73540
L75170 73620
L75140 73680
L75110 73710
L75050 73740
L74820 73740
" />
<path d="M75510 74020
L75450 73990
L75420 73970
L75390 73910
L75390 73740
L75420 73680
L75450 73650
L75510 73620
L75590 73620
L75650 73650
L75680 73680
L75710 73740
L75710 73910
L75680 73970
L75650 73990
L75590 74020
L75510 74020
" />
<path d="M75910 73620
L76020 74020
L76130 73740
L76250 74020
L76360 73620
" />
<path d="M76820 73990
L76760 74020
L76650 74020
L76590 73990
L76560 73940
L76560 73710
L76590 73650
L76650 73620
L76760 73620
L76820 73650
L76850 73710
L76850 73770
L76560 73820
" />
<path d="M77100 74020
L77100 73620
" />
<path d="M77100 73740
L77130 73680
L77160 73650
L77220 73620
L77270 73620
" />
<path d="M77930 74020
L77930 73420
L78130 73850
L78330 73420
L78330 74020
" />
<path d="M78710 74020
L78650 73990
L78620 73970
L78590 73910
L78590 73740
L78620 73680
L78650 73650
L78710 73620
L78790 73620
L78850 73650
L78880 73680
L78910 73740
L78910 73910
L78880 73970
L78850 73990
L78790 74020
L78710 74020
" />
<path d="M79420 74020
L79420 73420
" />
<path d="M79420 73990
L79360 74020
L79250 74020
L79190 73990
L79160 73970
L79130 73910
L79130 73740
L79160 73680
L79190 73650
L79250 73620
L79360 73620
L79420 73650
" />
<path d="M79960 73620
L79960 74020
" />
<path d="M79700 73620
L79700 73940
L79730 73990
L79790 74020
L79870 74020
L79930 73990
L79960 73970
" />
<path d="M80330 74020
L80270 73990
L80240 73940
L80240 73420
" />
<path d="M80780 73990
L80720 74020
L80610 74020
L80550 73990
L80520 73940
L80520 73710
L80550 73650
L80610 73620
L80720 73620
L80780 73650
L80810 73710
L80810 73770
L80520 73820
" />
<path d="M81490 73390
L80980 74170
" />
<path d="M70230 71980
L70230 77980
" />
<path d="M70230 71980
L112230 71980
" />
<path d="M70230 71980
L112230 71980
" />
<path d="M70230 74380
L112230 74380
" />
<path d="M103430 75580
L103430 77980
" />
<path d="M70230 76780
L112230 76780
" />
<path d="M70230 75580
L112230 75580
" />
<path d="M76830 75580
L76830 76780
" />
</g>
<g style="fill:#A00000; fill-opacity:0.0; 
stroke:#A00000; stroke-width:0; stroke-opacity:1; 
stroke-linecap:round; stroke-linejoin:round;">
</g>
<g style="fill:#A00000; fill-opacity:0.0; 
stroke:#A00000; stroke-width:60; stroke-opacity:1; 
stroke-linecap:round; stroke-linejoin:round;">
<rect x="32000" y="12000" width="4000" height="3000" rx="0" />
<path d="M32000 13000
L30000 13000
" />
</g>
<g style="fill:#00A0A0; fill-opacity:0.0; 
stroke:#00A0A0; stroke-width:60; stroke-opacity:1; 
stroke-linecap:round; stroke-linejoin:round;">
<path d="M32340 12760
L32470 13160
L32600 12760
" />
<path d="M32740 13160
L32740 12760
" />
</g>
<g style="fill:#A00000; fill-opacity:0.0; 
stroke:#A00000; stroke-width:60; stroke-opacity:1; 
stroke-linecap:round; stroke-linejoin:round;">
<path d="M36000 13000
L38000 13000
" />
</g>
<g style="fill:#00A0A0; fill-opacity:0.0; 
stroke:#00A0A0; stroke-width:60; stroke-opacity:1; 
stroke-linecap:round; stroke-linejoin:round;">
<path d="M34980 12760
L35110 13160
L35240 12760
" />
<path d="M35450 12760
L35530 12760
L35570 12780
L35600 12820
L35620 12900
L35620 13030
L35600 13100
L35570 13140
L35530 13160
L35450 13160
L35410 13140
L35380 13100
L35360 13030
L35360 12900
L35380 12820
L35410 12780
L35450 12760
" />
</g>
<g style="fill:#A00000; fill-opacity:0.0; 
stroke:#A00000; stroke-width:60; stroke-opacity:1; 
stroke-linecap:round; stroke-linejoin:round;">
<path d="M34000 15000
L34000 16000
" />
</g>
<g style="fill:#00A0A0; fill-opacity:0.0; 
stroke:#00A0A0; stroke-width:60; stroke-opacity:1; 
stroke-linecap:round; stroke-linejoin:round;">
<path d="M33780 14400
L33760 14430
L33760 14490
L33780 14550
L33820 14590
L33860 14600
L33930 14620
L33990 14620
L34070 14600
L34100 14590
L34140 14550
L34160 14490
L34160 14450
L34140 14400
L34120 14380
L33990 14380
L33990 14450
" />
<path d="M34160 14200
L33760 14200
L34160 13980
L33760 13980
" />
<path d="M34160 13780
L33760 13780
L33760 13690
L33780 13630
L33820 13590
L33860 13580
L33930 13560
L33990 13560
L34070 13580
L34100 13590
L34140 13630
L34160 13690
L34160 13780
" />
<path d="M35040 15070
L35040 15560
L35070 15620
L35100 15640
L35160 15670
L35270 15670
L35330 15640
L35360 15620
L35390 15560
L35390 15070
" />
<path d="M35930 15270
L35930 15670
" />
<path d="M35790 15040
L35640 15470
L36020 15470
" />
<path d="M32700 11710
L32410 11710
L32410 11110
" />
<path d="M32900 11710
L32900 11110
L33100 11540
L33300 11110
L33300 11710
" />
<path d="M33540 11110
L33940 11110
L33680 11710
" />
<path d="M34250 11370
L34190 11340
L34160 11310
L34130 11260
L34130 11230
L34160 11170
L34190 11140
L34250 11110
L34360 11110
L34420 11140
L34450 11170
L34480 11230
L34480 11260
L34450 11310
L34420 11340
L34360 11370
L34250 11370
L34190 11400
L34160 11430
L34130 11480
L34130 11600
L34160 11660
L34190 11680
L34250 11710
L34360 11710
L34420 11680
L34450 11660
L34480 11600
L34480 11480
L34450 11430
L34420 11400
L34360 11370
" />
<path d="M34850 11110
L34900 11110
L34960 11140
L34990 11170
L35020 11230
L35050 11340
L35050 11480
L35020 11600
L34990 11660
L34960 11680
L34900 11710
L34850 11710
L34790 11680
L34760 11660
L34730 11600
L34700 11480
L34700 11340
L34730 11230
L34760 11170
L34790 11140
L34850 11110
" />
<path d="M35590 11110
L35300 11110
L35270 11400
L35300 11370
L35360 11340
L35500 11340
L35560 11370
L35590 11400
L35620 11460
L35620 11600
L35590 11660
L35560 11680
L35500 11710
L35360 11710
L35300 11680
L35270 11660
" />
</g>
<g style="fill:#00A0A0; fill-opacity:0.0; 
stroke:#00A0A0; stroke-width:0; stroke-opacity:1; 
stroke-linecap:round; stroke-linejoin:round;">
</g>
<g style="fill:#A00000; fill-opacity:0.0; 
stroke:#A00000; stroke-width:60; stroke-opacity:1; 
stroke-linecap:round; stroke-linejoin:round;">
<polyline fill="none;"
points="26500,12500
26500,13500
" /> 
</g>
<g style="fill:#A00000; fill-opacity:1.0; 
stroke:#A00000; stroke-width:60; stroke-opacity:1; 
stroke-linecap:round; stroke-linejoin:round;">
<polyline style="fill-rule:evenodd;"
points="25500,12500
26500,13000
25500,13500
" /> 
<path d="M25500 13000
L24000 13000
" />
<path d="M26500 13000
L28000 13000
" />
</g>
<g style="fill:#00A0A0; fill-opacity:0.0; 
stroke:#00A0A0; stroke-width:60; stroke-opacity:1; 
stroke-linecap:round; stroke-linejoin:round;">
<path d="M25520 12130
L25520 11730
L25610 11730
L25670 11750
L25710 11790
L25720 11830
L25740 11900
L25740 11960
L25720 12040
L25710 12070
L25670 12110
L25610 12130
L25520 12130
" />
<path d="M25900 11770
L25920 11750
L25950 11730
L26050 11730
L26090 11750
L26110 11770
L26120 11810
L26120 11850
L26110 11900
L25880 12130
L26120 12130
" />
<path d="M26470 11730
L26390 11730
L26350 11750
L26330 11770
L26300 11830
L26280 11900
L26280 12060
L26300 12090
L26310 12110
L26350 12130
L26430 12130
L26470 12110
L26490 12090
L26500 12060
L26500 11960
L26490 11920
L26470 11900
L26430 11880
L26350 11880
L26310 11900
L26300 11920
L26280 11960
" />
<path d="M25220 14130
L25220 13730
L25310 13730
L25370 13750
L25410 13790
L25420 13830
L25440 13900
L25440 13960
L25420 14040
L25410 14070
L25370 14110
L25310 14130
L25220 14130
" />
<path d="M25620 14130
L25620 13730
" />
<path d="M25880 13730
L25960 13730
L26000 13750
L26030 13790
L26050 13870
L26050 14000
L26030 14070
L26000 14110
L25960 14130
L25880 14130
L25840 14110
L25810 14070
L25790 14000
L25790 13870
L25810 13790
L25840 13750
L25880 13730
" />
<path d="M26230 14130
L26230 13730
L26320 13730
L26380 13750
L26420 13790
L26430 13830
L26450 13900
L26450 13960
L26430 14040
L26420 14070
L26380 14110
L26320 14130
L26230 14130
" />
<path d="M26630 13920
L26760 13920
" />
<path d="M26820 14130
L26630 14130
L26630 13730
L26820 13730
" />
</g>
<g style="fill:#00A0A0; fill-opacity:0.0; 
stroke:#00A0A0; stroke-width:0; stroke-opacity:1; 
stroke-linecap:round; stroke-linejoin:round;">
</g>
<g style="fill:#A00000; fill-opacity:0.0; 
stroke:#A00000; stroke-width:80; stroke-opacity:1; 
stroke-linecap:round; stroke-linejoin:round;">
<polyline fill="none;"
points="30800,16000
30800,15000
29200,15000
29200,16000
" /> 
</g>
<g style="fill:#A00000; fill-opacity:1.0; 
stroke:#A00000; stroke-width:60; stroke-opacity:1; 
stroke-linecap:round; stroke-linejoin:round;">
<polyline style="fill-rule:evenodd;"
points="30500,16000
30500,15300
29500,15300
29500,16000
" /> 
<path d="M30000 16000
L30000 17500
" />
<path d="M30000 15000
L30000 13500
" />
</g>
<g style="fill:#00A0A0; fill-opacity:0.0; 
stroke:#00A0A0; stroke-width:60; stroke-opacity:1; 
stroke-linecap:round; stroke-linejoin:round;">
<path d="M29040 16650
L29020 16670
L28970 16690
L28930 16690
L28870 16670
L28830 16630
L28820 16600
L28800 16520
L28800 16460
L28820 16390
L28830 16350
L28870 16310
L28930 16290
L28970 16290
L29020 16310
L29040 16330
" />
<path d="M29180 16290
L29420 16290
L29290 16440
L29350 16440
L29390 16460
L29410 16480
L29420 16520
L29420 16620
L29410 16650
L29390 16670
L29350 16690
L29230 16690
L29200 16670
L29180 16650
" />
<path d="M29020 14650
L29000 14670
L28950 14690
L28910 14690
L28850 14670
L28810 14630
L28800 14600
L28780 14520
L28780 14460
L28800 14390
L28810 14350
L28850 14310
L28910 14290
L28950 14290
L29000 14310
L29020 14330
" />
<path d="M29200 14690
L29200 14290
L29350 14290
L29390 14310
L29400 14330
L29420 14370
L29420 14430
L29400 14460
L29390 14480
L29350 14500
L29200 14500
" />
</g>
<g style="fill:#00A000; fill-opacity:0.0; 
stroke:#00A000; stroke-width:60; stroke-opacity:1; 
stroke-linecap:round; stroke-linejoin:round;">
<path d="M38000 13000
L45000 13000
" />
<path d="M28000 13000
L30000 13000
" />
</g>
<g style="fill:#00A000; fill-opacity:0.0; 
stroke:#00A000; stroke-width:0; stroke-opacity:1; 
stroke-linecap:round; stroke-linejoin:round;">
</g>
<g style="fill:#A00000; fill-opacity:0.0; 
stroke:#A00000; stroke-width:60; stroke-opacity:1; 
stroke-linecap:round; stroke-linejoin:round;">
<circle cx="21500" cy="9900" r="200" /> 
<polyline fill="none;"
points="21500,10500
21500,10100
21500,10100
" /> 
</g>
<g style="fill:#00A0A0; fill-opacity:0.0; 
stroke:#00A0A0; stroke-width:50; stroke-opacity:1; 
stroke-linecap:round; stroke-linejoin:round;">
<path d="M21110 9390
L21340 9390
" />
<path d="M21230 9500
L21230 9270
" />
<path d="M21500 9500
L21550 9500
L21580 9490
L21600 9470
L21620 9430
L21640 9370
L21640 9260
L21620 9230
L21610 9220
L21580 9200
L21520 9200
L21500 9220
L21480 9230
L21470 9260
L21470 9330
L21480 9360
L21500 9370
L21520 9390
L21580 9390
L21610 9370
L21620 9360
L21640 9330
" />
<path d="M21730 9200
L21830 9500
L21930 9200
" />
</g>
<g style="fill:#00A0A0; fill-opacity:0.0; 
stroke:#00A0A0; stroke-width:60; stroke-opacity:1; 
stroke-linecap:round; stroke-linejoin:round;">
</g>
<g style="fill:#00A000; fill-opacity:0.0; 
stroke:#00A000; stroke-width:60; stroke-opacity:1; 
stroke-linecap:round; stroke-linejoin:round;">
<path d="M21500 10500
L21500 13000
" />
<path d="M21500 13000
L24000 13000
" />
<path d="M30000 13000
L30000 13500
" />
<path d="M30000 17500
L30000 19500
" />
</g>
<g style="fill:#00A000; fill-opacity:0.0; 
stroke:#00A000; stroke-width:0; stroke-opacity:1; 
stroke-linecap:round; stroke-linejoin:round;">
</g>
<g style="fill:#A00000; fill-opacity:0.0; 
stroke:#A00000; stroke-width:60; stroke-opacity:1; 
stroke-linecap:round; stroke-linejoin:round;">
<polyline fill="none;"
points="33500,17500
34000,18000
34500,17500
33500,17500
" /> 
</g>
<g style="fill:#A00000; fill-opacity:0.0; 
stroke:#A00000; stroke-width:0; stroke-opacity:1; 
stroke-linecap:round; stroke-linejoin:round;">
</g>
<g style="fill:#A00000; fill-opacity:0.0; 
stroke:#A00000; stroke-width:60; stroke-opacity:1; 
stroke-linecap:round; stroke-linejoin:round;">
<polyline fill="none;"
points="29500,19500
30000,20000
30500,19500
29500,19500
" /> 
</g>
<g style="fill:#00A000; fill-opacity:0.0; 
stroke:#00A000; stroke-width:60; stroke-opacity:1; 
stroke-linecap:round; stroke-linejoin:round;">
<path d="M34000 16000
L34000 17500
" />
</g>
<g style="fill:#00A000; fill-opacity:0.0; 
stroke:#00A000; stroke-width:0; stroke-opacity:1; 
stroke-linecap:round; stroke-linejoin:round;">
</g>
<g style="fill:#A00000; fill-opacity:0.0; 
stroke:#A00000; stroke-width:60; stroke-opacity:1; 
stroke-linecap:round; stroke-linejoin:round;">
<circle cx="45500" cy="13000" r="200" /> 
<polyline fill="none;"
points="45000,13000
45300,13000
45300,13000
" /> 
</g>
<g style="fill:#00A0A0; fill-opacity:0.0; 
stroke:#00A0A0; stroke-width:50; stroke-opacity:1; 
stroke-linecap:round; stroke-linejoin:round;">
<path d="M45840 13400
L46140 13300
L45840 13200
" />
<path d="M46110 12930
L46130 12940
L46140 12980
L46140 13010
L46130 13060
L46100 13080
L46070 13100
L46010 13110
L45970 13110
L45910 13100
L45880 13080
L45860 13060
L45840 13010
L45840 12980
L45860 12940
L45870 12930
" />
<path d="M46110 12630
L46130 12640
L46140 12680
L46140 12710
L46130 12760
L46100 12780
L46070 12800
L46010 12810
L45970 12810
L45910 12800
L45880 12780
L45860 12760
L45840 12710
L45840 12680
L45860 12640
L45870 12630
" />
</g> 
</svg>
